<svg width="734" height="640" viewBox="0 0 734 640" fill="none" xmlns="http://www.w3.org/2000/svg" xmlns:xlink="http://www.w3.org/1999/xlink">
<rect width="734" height="640" fill="url(#pattern0)"/>
<path d="M222 533L442.8 541L512 527.3V549L443.5 568.7L222 557.7V533Z" fill="#3595F6" fill-opacity="0.75"/>
<path d="M223 531V506L443.3 509.3L513 506V526L443.7 539L223 531Z" fill="#3595F6" fill-opacity="0.75"/>
<path d="M223 504V479H444H513V502L445 509L223 504Z" fill="#3595F6" fill-opacity="0.75"/>
<path d="M223 478V453L444.3 449.3L512 456V478H444" fill="#3595F6" fill-opacity="0.75"/>
<path d="M223 452V426L444.5 422.7L513 433.7V455L444 448.3L223 452Z" fill="#3595F6" fill-opacity="0.75"/>
<path d="M222 426V402.3L443 390L514 413V434.3L443 422L222 426Z" fill="#3595F6" fill-opacity="0.75"/>
<path d="M222 403V378L444.2 361.7L514 390.3V411L443.7 389.3L222 403Z" fill="#3595F6" fill-opacity="0.75"/>
<path d="M222 378V353L444.5 332.7L514 369.3V390L442 361.3L222 378Z" fill="#3595F6" fill-opacity="0.75"/>
<path d="M222 353V329L445 304.3L514 348.3V370L444.7 332L222 353Z" fill="#3595F6" fill-opacity="0.75"/>
<path d="M222 332V308L444.5 279.3L514 330.3V351L443.7 308.7L222 332Z" fill="#3595F6" fill-opacity="0.75"/>
<path d="M221 306V282L443.3 249L514 308.3V328L444 277.3L221 306Z" fill="#3595F6" fill-opacity="0.75"/>
<path d="M222 281V257L443.2 222L513 286V307L444.3 248.7L222 281Z" fill="#3595F6" fill-opacity="0.75"/>
<path d="M222 257V232L444.3 194L513 264.3V285L444 221L222 257Z" fill="#3595F6" fill-opacity="0.75"/>
<path d="M222 233V208L442.8 164.3L513 243.3V266L444 192.7L222 233Z" fill="#3595F6" fill-opacity="0.75"/>
<path d="M223 210V185L443 137L513 222V245L442.3 165.7L223 210Z" fill="#3595F6" fill-opacity="0.75"/>
<path d="M222 185V160L441.8 108L513 200.3V223L443.3 136.7L222 185Z" fill="#3595F6" fill-opacity="0.75"/>
<path d="M222 159V133L444 76.3L513 178V199L443.7 107.3L222 159Z" fill="#3595F6" fill-opacity="0.75"/>
<defs>
<pattern id="pattern0" patternContentUnits="objectBoundingBox" width="1" height="1">
<use xlink:href="#image0" transform="translate(-0.00408719) scale(0.0013624 0.0015625)"/>
</pattern>
<image id="image0" width="740" height="640" xlink:href="img/home.png"/>
</defs>
</svg>
